<?xml version="1.0" ?><svg fill="none" height="40" viewBox="0 0 40 40" width="40" xmlns="http://www.w3.org/2000/svg"><path d="M12.364 13C12.4008 6.06673 16.2002 2.5 19.9999 2.5C19.9998 2.5 19.9999 2.5 19.9999 2.5C23.818 2.5 27.6364 6.10156 27.6364 13.1016C27.6364 15.5979 26.9338 18.05 25.7822 20.39C24.9902 19.6941 24.21 18.9778 23.4592 18.251C22.7067 17.5226 21.9918 16.7913 21.3291 16.0671C23.1739 13.8589 24.5257 11.695 24.9501 9.82441C23.5574 8.28165 21.7786 7.5 19.9999 7.5C18.2212 7.5 16.4426 8.28153 15.05 9.82405C16.4548 16.0181 28.0289 25.4279 34.0001 29.0107L29.0001 36C22.6365 31.5455 12.3638 22.647 12.3638 13.1016C12.3638 13.0676 12.3639 13.0338 12.364 13Z" fill="black"/><path d="M18.5905 29.7749C17.9668 29.1217 17.3567 28.4467 16.7688 27.7519C15.646 26.4252 14.5813 24.9997 13.6541 23.4938C10.8672 25.7882 8.09029 27.7565 6 29.0107L11 36C13.2504 34.4247 15.9896 32.2937 18.5905 29.7749Z" fill="black"/></svg>